simulation
nRows=44
nColumns=15
endheader
time  TH_x TH_y TH_z SC_y  SC_z  SC_x  AC_y  AC_z  AC_x  GH_y  GH_z  GH_yy  EL_x  PS_y
0.770000  0.000000  0.000000  0.000000  -29.464085  -1.487831  2.631741  66.265173  18.496355  3.858059  57.899088  45.288058  -72.677046  26.644828  0.000000
0.780000  0.000000  0.000000  0.000000  -29.443876  -1.532798  2.609038  66.429955  18.425941  3.882120  58.101487  45.161421  -72.751310  26.725054  0.000000
0.790000  0.000000  0.000000  0.000000  -29.424611  -1.578339  2.588001  66.595609  18.356648  3.905861  58.301506  45.036317  -72.820927  26.806296  0.000000
0.800000  0.000000  0.000000  0.000000  -29.406265  -1.624347  2.568598  66.761845  18.288483  3.929260  58.499031  44.912824  -72.886095  26.888413  0.000000
0.810000  0.000000  0.000000  0.000000  -29.388814  -1.670714  2.550796  66.928369  18.221452  3.952293  58.693947  44.791018  -72.947009  26.971260  0.000000
0.820000  0.000000  0.000000  0.000000  -29.372228  -1.717334  2.534560  67.094892  18.155558  3.974936  58.886141  44.670975  -73.003863  27.054692  0.000000
0.830000  0.000000  0.000000  0.000000  -29.356479  -1.764098  2.519856  67.261124  18.090805  3.997169  59.075500  44.552767  -73.056847  27.138564  0.000000
0.840000  0.000000  0.000000  0.000000  -29.341539  -1.810899  2.506651  67.426780  18.027195  4.018970  59.261912  44.436465  -73.106148  27.222727  0.000000
0.850000  0.000000  0.000000  0.000000  -29.327376  -1.857630  2.494909  67.591574  17.964729  4.040318  59.445265  44.322141  -73.151949  27.307034  0.000000
0.860000  0.000000  0.000000  0.000000  -29.313961  -1.904185  2.484596  67.755227  17.903407  4.061193  59.625449  44.209861  -73.194431  27.391338  0.000000
0.870000  0.000000  0.000000  0.000000  -29.301261  -1.950459  2.475677  67.917462  17.843229  4.081574  59.802355  44.099692  -73.233767  27.475488  0.000000
0.880000  0.000000  0.000000  0.000000  -29.289245  -1.996346  2.468117  68.078006  17.784193  4.101444  59.975873  43.991699  -73.270129  27.559339  0.000000
0.890000  0.000000  0.000000  0.000000  -29.277881  -2.041744  2.461881  68.236592  17.726298  4.120784  60.145896  43.885945  -73.303678  27.642741  0.000000
0.900000  0.000000  0.000000  0.000000  -29.267137  -2.086552  2.456934  68.392955  17.669541  4.139576  60.312318  43.782491  -73.334576  27.725546  0.000000
0.910000  0.000000  0.000000  0.000000  -29.256982  -2.130668  2.453241  68.546838  17.613921  4.157804  60.475033  43.681397  -73.362972  27.807610  0.000000
0.920000  0.000000  0.000000  0.000000  -29.247383  -2.173996  2.450769  68.697990  17.559434  4.175450  60.633937  43.582719  -73.389013  27.888785  0.000000
0.930000  0.000000  0.000000  0.000000  -29.238307  -2.216439  2.449483  68.846163  17.506076  4.192500  60.788926  43.486515  -73.412839  27.968927  0.000000
0.940000  0.000000  0.000000  0.000000  -29.229725  -2.257903  2.449350  68.991120  17.453846  4.208939  60.939899  43.392838  -73.434579  28.047893  0.000000
0.950000  0.000000  0.000000  0.000000  -29.221605  -2.298296  2.450336  69.132627  17.402740  4.224751  61.086754  43.301740  -73.454359  28.125540  0.000000
0.960000  0.000000  0.000000  0.000000  -29.213916  -2.337528  2.452409  69.270459  17.352754  4.239925  61.229394  43.213272  -73.472295  28.201729  0.000000
0.970000  0.000000  0.000000  0.000000  -29.206628  -2.375514  2.455536  69.404399  17.303885  4.254447  61.367719  43.127483  -73.488494  28.276322  0.000000
0.980000  0.000000  0.000000  0.000000  -29.199712  -2.412169  2.459684  69.534235  17.256131  4.268305  61.501634  43.044419  -73.503057  28.349182  0.000000
0.990000  0.000000  0.000000  0.000000  -29.193139  -2.447412  2.464824  69.659767  17.209488  4.281488  61.631043  42.964126  -73.516076  28.420174  0.000000
1.000000  0.000000  0.000000  0.000000  -29.186883  -2.481165  2.470925  69.780801  17.163954  4.293986  61.755854  42.886646  -73.527632  28.489169  0.000000
1.010000  0.000000  0.000000  0.000000  -29.180915  -2.513354  2.477956  69.897151  17.119526  4.305788  61.875975  42.812021  -73.537801  28.556036  0.000000
1.020000  0.000000  0.000000  0.000000  -29.175210  -2.543906  2.485889  70.008642  17.076204  4.316886  61.991316  42.740290  -73.546646  28.620649  0.000000
1.030000  0.000000  0.000000  0.000000  -29.169744  -2.572753  2.494695  70.115106  17.033985  4.327271  62.101788  42.671491  -73.554224  28.682885  0.000000
1.040000  0.000000  0.000000  0.000000  -29.164492  -2.599830  2.504347  70.216387  16.992869  4.336936  62.207306  42.605660  -73.560580  28.742623  0.000000
1.050000  0.000000  0.000000  0.000000  -29.159433  -2.625077  2.514817  70.312335  16.952855  4.345874  62.307785  42.542830  -73.565752  28.799747  0.000000
1.060000  0.000000  0.000000  0.000000  -29.154545  -2.648435  2.526080  70.402813  16.913944  4.354079  62.403143  42.483033  -73.569767  28.854142  0.000000
1.070000  0.000000  0.000000  0.000000  -29.149808  -2.669850  2.538112  70.487691  16.876136  4.361546  62.493299  42.426299  -73.572642  28.905698  0.000000
1.080000  0.000000  0.000000  0.000000  -29.145204  -2.689273  2.550886  70.566852  16.839433  4.368271  62.578174  42.372656  -73.574386  28.954309  0.000000
1.090000  0.000000  0.000000  0.000000  -29.140716  -2.706657  2.564382  70.640187  16.803837  4.374250  62.657693  42.322131  -73.574998  28.999870  0.000000
1.100000  0.000000  0.000000  0.000000  -29.136329  -2.721961  2.578575  70.707599  16.769352  4.379479  62.731782  42.274748  -73.574465  29.042284  0.000000
1.110000  0.000000  0.000000  0.000000  -29.132027  -2.735145  2.593446  70.769000  16.735980  4.383958  62.800368  42.230528  -73.572767  29.081454  0.000000
1.120000  0.000000  0.000000  0.000000  -29.127799  -2.746177  2.608973  70.824312  16.703726  4.387683  62.863383  42.189493  -73.569874  29.117291  0.000000
1.130000  0.000000  0.000000  0.000000  -29.123633  -2.755026  2.625138  70.873471  16.672595  4.390656  62.920760  42.151660  -73.565745  29.149706  0.000000
1.140000  0.000000  0.000000  0.000000  -29.119520  -2.761666  2.641922  70.916421  16.642594  4.392875  62.972433  42.117047  -73.560329  29.178618  0.000000
1.150000  0.000000  0.000000  0.000000  -29.115453  -2.766077  2.659307  70.953117  16.613729  4.394342  63.018342  42.085668  -73.553568  29.203948  0.000000
1.160000  0.000000  0.000000  0.000000  -29.111424  -2.768240  2.677279  70.983525  16.586009  4.395058  63.058426  42.057536  -73.545394  29.225623  0.000000
1.170000  0.000000  0.000000  0.000000  -29.107430  -2.768143  2.695820  71.007623  16.559442  4.395027  63.092630  42.032660  -73.535726  29.243575  0.000000
1.180000  0.000000  0.000000  0.000000  -29.103469  -2.765778  2.714918  71.025399  16.534037  4.394250  63.120899  42.011051  -73.524480  29.257738  0.000000
1.190000  0.000000  0.000000  0.000000  -29.099538  -2.761141  2.734559  71.036853  16.509804  4.392732  63.143183  41.992715  -73.511557  29.268054  0.000000
1.200000  0.000000  0.000000  0.000000  -29.095638  -2.754230  2.754732  71.041993  16.486756  4.390477  63.159434  41.977656  -73.496853  29.274468  0.000000
